<?xml version="1.0" encoding="utf-8"?>
<!-- Generator: Adobe Illustrator 17.0.0, SVG Export Plug-In . SVG Version: 6.00 Build 0)  -->
<!DOCTYPE svg PUBLIC "-//W3C//DTD SVG 1.1//EN" "http://www.w3.org/Graphics/SVG/1.1/DTD/svg11.dtd">
<svg version="1.1" id="Capa_1" xmlns="http://www.w3.org/2000/svg" xmlns:xlink="http://www.w3.org/1999/xlink" x="0px" y="0px"
	 width="70px" height="70px" viewBox="0 0 70 70" enable-background="new 0 0 70 70" xml:space="preserve">
<g>
	<path fill="none" stroke="#A61622" stroke-width="6" stroke-miterlimit="10" d="M43.353,14.432H23.267
		c-1.734,0-3.153,1.419-3.153,3.153v38.094c0,1.734,1.419,3.153,3.153,3.153h28.581c1.734,0,3.153-1.419,3.153-3.153V26.208
		L43.353,14.432z"/>
	<path fill="#A5161A" d="M43.382,14.432v8.608c0,1.734,1.419,3.153,3.153,3.153H55L43.382,14.432z"/>
	<path fill="#A81819" d="M35.252,41.156H18.424c-3.232,0-5.877-2.645-5.877-5.878v-4.03c0-3.233,2.645-5.877,5.877-5.877h16.828
		c3.233,0,5.878,2.645,5.878,5.877v4.03C41.13,38.511,38.485,41.156,35.252,41.156z"/>
	<text transform="matrix(1 0 0 1 17.5216 36.6319)" fill="#FFFFFF" font-family="'Cabin-Bold'" font-size="9.9528">PDF</text>
</g>
</svg>
