<?xml version="1.0" encoding="utf-8"?>
<!-- Generator: Adobe Illustrator 17.0.0, SVG Export Plug-In . SVG Version: 6.00 Build 0)  -->
<!DOCTYPE svg PUBLIC "-//W3C//DTD SVG 1.1//EN" "http://www.w3.org/Graphics/SVG/1.1/DTD/svg11.dtd">
<svg version="1.1" id="Capa_1" xmlns="http://www.w3.org/2000/svg" xmlns:xlink="http://www.w3.org/1999/xlink" x="0px" y="0px"
	 width="70px" height="70px" viewBox="0 0 70 70" enable-background="new 0 0 70 70" xml:space="preserve">
<ellipse fill="#E4E2E3" cx="34.14" cy="59.205" rx="13.586" ry="3.575"/>
<path fill="#2A67AC" stroke="#FFFFFF" stroke-miterlimit="10" d="M35,7.22c-11.745,0-21.268,9.522-21.268,21.267
	c0,5.361,1.988,10.254,5.261,13.995l-0.007,0.008l0.101,0.101c0.566,0.639,1.17,1.242,1.808,1.808L34.988,58.49l13.929-13.929
	c4.5-3.9,7.351-9.652,7.351-16.074C56.267,16.741,46.745,7.22,35,7.22z M35,33.99c-3.04,0-5.503-2.464-5.503-5.503
	S31.96,22.984,35,22.984c3.039,0,5.503,2.464,5.503,5.503S38.039,33.99,35,33.99z"/>
</svg>
