<?xml version="1.0" encoding="utf-8"?>
<!-- Generator: Adobe Illustrator 17.0.0, SVG Export Plug-In . SVG Version: 6.00 Build 0)  -->
<!DOCTYPE svg PUBLIC "-//W3C//DTD SVG 1.1//EN" "http://www.w3.org/Graphics/SVG/1.1/DTD/svg11.dtd">
<svg version="1.1" id="Capa_1" xmlns="http://www.w3.org/2000/svg" xmlns:xlink="http://www.w3.org/1999/xlink" x="0px" y="0px"
	 width="70px" height="70px" viewBox="0 0 70 70" enable-background="new 0 0 70 70" xml:space="preserve">
<g>
	<path fill="#2AA0DC" d="M35.011,44.532l-5.947-5.208L12.085,53.875c0.618,0.586,1.44,0.938,2.363,0.938h41.105
		c0.921,0,1.741-0.352,2.361-0.938l-16.98-14.551L35.011,44.532z"/>
	<path fill="#2AA0DC" d="M57.916,21.458c-0.603-0.587-1.441-0.938-2.361-0.938H14.449c-0.906,0-1.746,0.351-2.363,0.938
		l22.925,19.641L57.916,21.458z"/>
	<path fill="#2AA0DC" d="M10.998,23.534v28.483L27.574,37.93L10.998,23.534z"/>
	<path fill="#2AA0DC" d="M42.427,37.93l16.576,14.087V23.518L42.427,37.93z"/>
</g>
</svg>
