<?xml version="1.0" encoding="utf-8"?>
<!-- Generator: Adobe Illustrator 17.0.0, SVG Export Plug-In . SVG Version: 6.00 Build 0)  -->
<!DOCTYPE svg PUBLIC "-//W3C//DTD SVG 1.1//EN" "http://www.w3.org/Graphics/SVG/1.1/DTD/svg11.dtd">
<svg version="1.1" id="Capa_1" xmlns="http://www.w3.org/2000/svg" xmlns:xlink="http://www.w3.org/1999/xlink" x="0px" y="0px"
	 width="290px" height="95px" viewBox="0 0 290 95" enable-background="new 0 0 290 95" xml:space="preserve">
<g>
	<g>
		<defs>
			<rect id="SVGID_1_" x="29.024" y="6.036" width="241.415" height="85.367"/>
		</defs>
		<clipPath id="SVGID_2_">
			<use xlink:href="#SVGID_1_"  overflow="visible"/>
		</clipPath>
		<path clip-path="url(#SVGID_2_)" fill="#002F49" d="M49.157,59.894c-2.561-3.011-4.111-6.912-4.111-11.174
			c0-4.265,1.549-8.164,4.111-11.177l-5.087-5.087L29.885,46.641c-1.147,1.147-1.147,3.008,0,4.155L44.07,64.981L49.157,59.894z"/>
		<path clip-path="url(#SVGID_2_)" fill="#002F49" d="M62.311,31.454c4.262,0,8.164,1.547,11.174,4.111l14.486-14.486L73.786,6.894
			c-1.147-1.147-3.008-1.147-4.155,0L46.047,30.478l5.087,5.087C54.148,33.001,58.049,31.454,62.311,31.454"/>
		<path clip-path="url(#SVGID_2_)" fill="#002F49" d="M62.311,65.981c-4.262,0-8.164-1.549-11.177-4.108L36.651,76.356
			l14.185,14.185c1.147,1.15,3.005,1.15,4.152,0l23.587-23.584l-5.09-5.084C70.475,64.432,66.574,65.981,62.311,65.981"/>
		<path clip-path="url(#SVGID_2_)" fill="#9C9D27" d="M94.737,46.64L80.552,32.455l-5.087,5.09
			c2.561,3.011,4.111,6.909,4.111,11.174c0,4.262-1.549,8.164-4.111,11.174l5.087,5.087l14.185-14.185
			C95.884,49.648,95.884,47.787,94.737,46.64"/>
		<path clip-path="url(#SVGID_2_)" fill="#9C9D27" d="M77.034,48.718c0,8.131-6.592,14.723-14.723,14.723
			s-14.723-6.592-14.723-14.723s6.592-14.723,14.723-14.723S77.034,40.588,77.034,48.718"/>
		<path clip-path="url(#SVGID_2_)" fill="#003046" d="M103.926,35.153h6.796c1.8,0,2.953-0.028,3.46-0.083
			c0.507-0.055,0.921-0.196,1.238-0.419c0.474-0.342,0.711-1.18,0.711-2.517c0-1.155-0.221-1.9-0.659-2.242
			c-0.287-0.223-0.731-0.367-1.334-0.436c-0.607-0.066-1.745-0.099-3.416-0.099h-6.796V35.153z M102.087,42.768V27.576h8.635
			c2.338,0.03,3.832,0.094,4.48,0.19c1.141,0.163,1.933,0.728,2.371,1.693c0.292,0.645,0.436,1.549,0.436,2.707
			c0,0.874-0.044,1.541-0.132,1.999c-0.085,0.458-0.24,0.822-0.463,1.097c-0.356,0.438-0.913,0.747-1.674,0.924
			c0.593,0.11,1.064,0.364,1.414,0.755c0.265,0.312,0.433,0.684,0.507,1.114c0.074,0.43,0.11,1.282,0.11,2.556v2.156h-1.839v-1.456
			c0-1.238-0.025-2.093-0.072-2.567c-0.135-0.965-0.631-1.527-1.492-1.69c-0.339-0.052-0.642-0.083-0.91-0.094
			c-0.267-0.014-1.18-0.022-2.738-0.028h-6.796v5.834H102.087z"/>
	</g>
	<polygon fill="#003046" points="119.695,27.576 135.422,27.576 135.422,29.358 128.499,29.358 128.499,42.768 126.657,42.768 
		126.657,29.358 119.695,29.358 	"/>
	<g>
		<defs>
			<rect id="SVGID_3_" x="29.024" y="6.036" width="241.415" height="85.367"/>
		</defs>
		<clipPath id="SVGID_4_">
			<use xlink:href="#SVGID_3_"  overflow="visible"/>
		</clipPath>
		<path clip-path="url(#SVGID_4_)" fill="#003046" d="M136.994,38.021h1.795c0,0.171,0.003,0.281,0.011,0.334
			c0.014,0.855,0.069,1.425,0.165,1.715c0.099,0.292,0.314,0.513,0.645,0.67c0.516,0.245,2.195,0.367,5.045,0.367
			c2.062,0,3.543-0.11,4.444-0.334c0.885-0.215,1.329-0.968,1.329-2.261c0-0.651-0.072-1.144-0.215-1.475
			c-0.141-0.328-0.383-0.562-0.728-0.695c-0.347-0.135-0.83-0.21-1.453-0.234c-0.623-0.022-2.644-0.033-6.06-0.033
			c-1.152,0-2.073-0.116-2.763-0.35c-0.689-0.232-1.221-0.607-1.594-1.119c-0.438-0.607-0.659-1.53-0.659-2.771
			c0-1.373,0.347-2.366,1.045-2.983c0.336-0.303,0.714-0.535,1.125-0.689c0.414-0.157,0.993-0.284,1.737-0.38
			c1.221-0.163,2.677-0.243,4.362-0.243c1.56,0,2.768,0.085,3.62,0.259c0.852,0.174,1.514,0.471,1.988,0.893
			c0.392,0.35,0.662,0.755,0.808,1.221c0.143,0.469,0.223,1.186,0.237,2.153h-1.844v-0.232c0-0.736-0.074-1.23-0.223-1.481
			c-0.218-0.392-0.689-0.67-1.417-0.841c-0.728-0.168-1.811-0.254-3.253-0.254c-1.792,0-3.138,0.074-4.034,0.221
			c-0.899,0.149-1.505,0.394-1.822,0.736c-0.298,0.325-0.447,0.866-0.447,1.624c0,0.681,0.074,1.169,0.221,1.456
			c0.149,0.289,0.441,0.507,0.874,0.656c0.629,0.223,1.842,0.342,3.634,0.356c0.609,0.008,2.115,0.014,4.519,0.022
			c0.993,0.008,1.756,0.113,2.288,0.312c0.532,0.201,0.965,0.546,1.304,1.034c0.419,0.623,0.629,1.514,0.629,2.669
			c0,1.106-0.171,1.977-0.516,2.616c-0.414,0.742-1.18,1.238-2.299,1.489c-1.119,0.254-3.129,0.378-6.03,0.378
			c-1.536,0-2.669-0.05-3.397-0.149c-0.725-0.102-1.301-0.284-1.729-0.551c-0.513-0.32-0.868-0.725-1.064-1.219
			c-0.196-0.494-0.295-1.23-0.295-2.208C136.977,38.655,136.983,38.429,136.994,38.021"/>
	</g>
	<path fill="#C3C33B" d="M111.553,53.592l-2.801-5.487h-0.482l-2.84,5.487H111.553z M113.19,56.851l-1.064-2.095h-7.273
		l-1.078,2.095h-1.356l5.101-9.909h1.919l5.087,9.909H113.19z"/>
	<path fill="none" stroke="#C3C33B" stroke-width="0.25" stroke-miterlimit="10" d="M111.553,53.592l-2.801-5.487h-0.482
		l-2.84,5.487H111.553z M113.19,56.851l-1.064-2.095h-7.273l-1.078,2.095h-1.356l5.101-9.909h1.919l5.087,9.909H113.19z"/>
	<g>
		<defs>
			<rect id="SVGID_5_" x="29.024" y="6.036" width="241.415" height="85.367"/>
		</defs>
		<clipPath id="SVGID_6_">
			<use xlink:href="#SVGID_5_"  overflow="visible"/>
		</clipPath>
		<path clip-path="url(#SVGID_6_)" fill="#C3C33B" d="M115.528,46.914h1.205v4.869c0,1.436,0.011,2.305,0.036,2.6
			c0.039,0.378,0.138,0.651,0.301,0.822c0.163,0.168,0.436,0.281,0.816,0.334c0.626,0.08,1.53,0.124,2.71,0.124
			c1.621,0,2.729-0.052,3.342-0.16c0.361-0.063,0.615-0.187,0.764-0.369c0.149-0.179,0.237-0.477,0.256-0.888
			c0.022-0.372,0.036-1.194,0.047-2.462v-4.869h1.205v4.869c-0.011,1.323-0.033,2.236-0.066,2.738c-0.08,0.86-0.369,1.461-0.866,1.8
			c-0.312,0.204-0.689,0.328-1.13,0.383c-0.441,0.052-1.527,0.102-3.267,0.146c-1.522-0.025-2.435-0.044-2.732-0.063
			c-0.303-0.017-0.631-0.066-0.99-0.146c-0.596-0.141-1.031-0.51-1.31-1.106c-0.135-0.289-0.215-0.637-0.251-1.042
			c-0.033-0.403-0.058-1.304-0.069-2.71V46.914z"/>
		<path clip-path="url(#SVGID_6_)" fill="none" stroke="#C3C33B" stroke-width="0.25" stroke-miterlimit="10" d="M115.528,46.914
			h1.205v4.869c0,1.436,0.011,2.305,0.036,2.6c0.039,0.378,0.138,0.651,0.301,0.822c0.163,0.168,0.436,0.281,0.816,0.334
			c0.626,0.08,1.53,0.124,2.71,0.124c1.621,0,2.729-0.052,3.342-0.16c0.361-0.063,0.615-0.187,0.764-0.369
			c0.149-0.179,0.237-0.477,0.256-0.888c0.022-0.372,0.036-1.194,0.047-2.462v-4.869h1.205v4.869
			c-0.011,1.323-0.033,2.236-0.066,2.738c-0.08,0.86-0.369,1.461-0.866,1.8c-0.312,0.204-0.689,0.328-1.13,0.383
			c-0.441,0.052-1.527,0.102-3.267,0.146c-1.522-0.025-2.435-0.044-2.732-0.063c-0.303-0.017-0.631-0.066-0.99-0.146
			c-0.596-0.141-1.031-0.51-1.31-1.106c-0.135-0.289-0.215-0.637-0.251-1.042c-0.033-0.403-0.058-1.304-0.069-2.71V46.914z"/>
	</g>
	<polygon fill="#C3C33B" points="127.489,46.942 137.764,46.942 137.764,48.103 133.234,48.103 133.234,56.851 132.032,56.851 
		132.032,48.103 127.489,48.103 	"/>
	<polygon fill="none" stroke="#C3C33B" stroke-width="0.25" stroke-miterlimit="10" points="127.489,46.942 137.764,46.942 
		137.764,48.103 133.234,48.103 133.234,56.851 132.032,56.851 132.032,48.103 127.489,48.103 	"/>
	<g>
		<defs>
			<rect id="SVGID_7_" x="29.024" y="6.036" width="241.415" height="85.367"/>
		</defs>
		<clipPath id="SVGID_8_">
			<use xlink:href="#SVGID_7_"  overflow="visible"/>
		</clipPath>
		<path clip-path="url(#SVGID_8_)" fill="#C3C33B" d="M144.161,48.051c-1.263,0-2.192,0.052-2.785,0.165
			c-0.342,0.066-0.593,0.171-0.744,0.325c-0.154,0.152-0.259,0.4-0.323,0.747c-0.099,0.551-0.149,1.362-0.149,2.429
			c0,1.097,0.025,1.897,0.08,2.396c0.055,0.505,0.157,0.841,0.303,1.009c0.113,0.141,0.281,0.243,0.496,0.306
			c0.218,0.063,0.56,0.11,1.026,0.146c0.772,0.055,1.676,0.085,2.699,0.085c1.458,0,2.517-0.063,3.182-0.196
			c0.521-0.097,0.83-0.43,0.926-1.015c0.102-0.618,0.152-1.464,0.152-2.528c0-1.304-0.044-2.225-0.13-2.757
			c-0.088-0.543-0.433-0.866-1.031-0.968c-0.347-0.058-0.742-0.099-1.177-0.113C146.251,48.062,145.408,48.051,144.161,48.051
			 M144.862,46.86c1.544,0,2.636,0.055,3.27,0.165c0.634,0.108,1.097,0.32,1.39,0.634c0.185,0.201,0.323,0.436,0.419,0.709
			c0.091,0.276,0.165,0.662,0.218,1.152c0.066,0.629,0.099,1.417,0.099,2.371c0,1.224-0.05,2.145-0.157,2.774
			c-0.102,0.629-0.281,1.089-0.538,1.379c-0.267,0.309-0.703,0.521-1.312,0.634c-0.607,0.116-1.602,0.174-2.986,0.174
			c-0.681,0-1.434-0.014-2.264-0.036c-0.827-0.025-1.373-0.05-1.632-0.074c-0.452-0.05-0.808-0.127-1.067-0.24
			c-0.262-0.113-0.494-0.287-0.695-0.524c-0.27-0.312-0.452-0.744-0.543-1.307c-0.091-0.562-0.138-1.514-0.138-2.848
			c0-1.585,0.102-2.705,0.303-3.369c0.237-0.786,0.78-1.249,1.638-1.39C141.644,46.937,142.979,46.868,144.862,46.86"/>
		<path clip-path="url(#SVGID_8_)" fill="none" stroke="#C3C33B" stroke-width="0.25" stroke-miterlimit="10" d="M144.161,48.051
			c-1.263,0-2.192,0.052-2.785,0.165c-0.342,0.066-0.593,0.171-0.744,0.325c-0.154,0.152-0.259,0.4-0.323,0.747
			c-0.099,0.551-0.149,1.362-0.149,2.429c0,1.097,0.025,1.897,0.08,2.396c0.055,0.505,0.157,0.841,0.303,1.009
			c0.113,0.141,0.281,0.243,0.496,0.306c0.218,0.063,0.56,0.11,1.026,0.146c0.772,0.055,1.676,0.085,2.699,0.085
			c1.458,0,2.517-0.063,3.182-0.196c0.521-0.097,0.83-0.43,0.926-1.015c0.102-0.618,0.152-1.464,0.152-2.528
			c0-1.304-0.044-2.225-0.13-2.757c-0.088-0.543-0.433-0.866-1.031-0.968c-0.347-0.058-0.742-0.099-1.177-0.113
			C146.251,48.062,145.408,48.051,144.161,48.051z M144.862,46.86c1.544,0,2.636,0.055,3.27,0.165
			c0.634,0.108,1.097,0.32,1.39,0.634c0.185,0.201,0.323,0.436,0.419,0.709c0.091,0.276,0.165,0.662,0.218,1.152
			c0.066,0.629,0.099,1.417,0.099,2.371c0,1.224-0.05,2.145-0.157,2.774c-0.102,0.629-0.281,1.089-0.538,1.379
			c-0.267,0.309-0.703,0.521-1.312,0.634c-0.607,0.116-1.602,0.174-2.986,0.174c-0.681,0-1.434-0.014-2.264-0.036
			c-0.827-0.025-1.373-0.05-1.632-0.074c-0.452-0.05-0.808-0.127-1.067-0.24c-0.262-0.113-0.494-0.287-0.695-0.524
			c-0.27-0.312-0.452-0.744-0.543-1.307c-0.091-0.562-0.138-1.514-0.138-2.848c0-1.585,0.102-2.705,0.303-3.369
			c0.237-0.786,0.78-1.249,1.638-1.39C141.644,46.937,142.979,46.868,144.862,46.86z"/>
	</g>
	<polygon fill="#C3C33B" points="152.136,46.942 154.551,46.942 159.478,55.338 164.325,46.942 166.752,46.942 166.752,56.851 
		165.547,56.851 165.547,48.172 165.042,48.172 159.98,56.851 158.993,56.851 153.873,48.172 153.344,48.172 153.344,56.851 
		152.136,56.851 	"/>
	<polygon fill="none" stroke="#C3C33B" stroke-width="0.25" stroke-miterlimit="10" points="152.136,46.942 154.551,46.942 
		159.478,55.338 164.325,46.942 166.752,46.942 166.752,56.851 165.547,56.851 165.547,48.172 165.042,48.172 159.98,56.851 
		158.993,56.851 153.873,48.172 153.344,48.172 153.344,56.851 152.136,56.851 	"/>
	<path fill="#C3C33B" d="M177.162,53.592l-2.798-5.487h-0.485l-2.84,5.487H177.162z M178.799,56.851l-1.067-2.095h-7.273
		l-1.073,2.095h-1.362l5.106-9.909h1.913l5.087,9.909H178.799z"/>
	<path fill="none" stroke="#C3C33B" stroke-width="0.25" stroke-miterlimit="10" d="M177.162,53.592l-2.798-5.487h-0.485
		l-2.84,5.487H177.162z M178.799,56.851l-1.067-2.095h-7.273l-1.073,2.095h-1.362l5.106-9.909h1.913l5.087,9.909H178.799z"/>
	<polygon fill="#C3C33B" points="178.997,46.942 189.273,46.942 189.273,48.103 184.743,48.103 184.743,56.851 183.541,56.851 
		183.541,48.103 178.997,48.103 	"/>
	<polygon fill="none" stroke="#C3C33B" stroke-width="0.25" stroke-miterlimit="10" points="178.997,46.942 189.273,46.942 
		189.273,48.103 184.743,48.103 184.743,56.851 183.541,56.851 183.541,48.103 178.997,48.103 	"/>
	<rect x="190.643" y="46.94" fill="#C3C33B" width="1.081" height="9.909"/>
	
		<rect x="190.643" y="46.942" fill="none" stroke="#C3C33B" stroke-width="0.25" stroke-miterlimit="10" width="1.084" height="9.909"/>
	<g>
		<defs>
			<rect id="SVGID_9_" x="29.024" y="6.036" width="241.415" height="85.367"/>
		</defs>
		<clipPath id="SVGID_10_">
			<use xlink:href="#SVGID_9_"  overflow="visible"/>
		</clipPath>
		<path clip-path="url(#SVGID_10_)" fill="#C3C33B" d="M198.824,48.051c-1.265,0-2.195,0.052-2.782,0.165
			c-0.345,0.066-0.596,0.171-0.744,0.325c-0.154,0.152-0.265,0.4-0.325,0.747c-0.102,0.551-0.154,1.362-0.154,2.429
			c0,1.097,0.03,1.897,0.083,2.396c0.055,0.505,0.157,0.841,0.303,1.009c0.116,0.141,0.284,0.243,0.496,0.306
			c0.218,0.063,0.56,0.11,1.028,0.146c0.775,0.055,1.671,0.085,2.696,0.085c1.458,0,2.52-0.063,3.182-0.196
			c0.521-0.097,0.833-0.43,0.929-1.015c0.102-0.618,0.152-1.464,0.152-2.528c0-1.304-0.044-2.225-0.13-2.757
			c-0.094-0.543-0.433-0.866-1.031-0.968c-0.347-0.058-0.742-0.099-1.18-0.113C200.912,48.062,200.071,48.051,198.824,48.051
			 M199.525,46.86c1.547,0,2.636,0.055,3.267,0.165c0.637,0.108,1.1,0.32,1.392,0.634c0.185,0.201,0.325,0.436,0.414,0.709
			c0.097,0.276,0.171,0.662,0.221,1.152c0.066,0.629,0.102,1.417,0.102,2.371c0,1.224-0.052,2.145-0.154,2.774
			c-0.108,0.629-0.287,1.089-0.543,1.379c-0.267,0.309-0.703,0.521-1.312,0.634c-0.609,0.116-1.599,0.174-2.983,0.174
			c-0.678,0-1.436-0.014-2.261-0.036c-0.83-0.025-1.379-0.05-1.638-0.074c-0.452-0.05-0.808-0.127-1.067-0.24
			c-0.259-0.113-0.494-0.287-0.695-0.524c-0.27-0.312-0.452-0.744-0.543-1.307c-0.091-0.562-0.135-1.514-0.135-2.848
			c0-1.585,0.102-2.705,0.301-3.369c0.234-0.786,0.78-1.249,1.638-1.39C196.307,46.937,197.642,46.868,199.525,46.86"/>
		<path clip-path="url(#SVGID_10_)" fill="none" stroke="#C3C33B" stroke-width="0.25" stroke-miterlimit="10" d="M198.824,48.051
			c-1.265,0-2.195,0.052-2.782,0.165c-0.345,0.066-0.596,0.171-0.744,0.325c-0.154,0.152-0.265,0.4-0.325,0.747
			c-0.102,0.551-0.154,1.362-0.154,2.429c0,1.097,0.03,1.897,0.083,2.396c0.055,0.505,0.157,0.841,0.303,1.009
			c0.116,0.141,0.284,0.243,0.496,0.306c0.218,0.063,0.56,0.11,1.028,0.146c0.775,0.055,1.671,0.085,2.696,0.085
			c1.458,0,2.52-0.063,3.182-0.196c0.521-0.097,0.833-0.43,0.929-1.015c0.102-0.618,0.152-1.464,0.152-2.528
			c0-1.304-0.044-2.225-0.13-2.757c-0.094-0.543-0.433-0.866-1.031-0.968c-0.347-0.058-0.742-0.099-1.18-0.113
			C200.912,48.062,200.071,48.051,198.824,48.051z M199.525,46.86c1.547,0,2.636,0.055,3.267,0.165
			c0.637,0.108,1.1,0.32,1.392,0.634c0.185,0.201,0.325,0.436,0.414,0.709c0.097,0.276,0.171,0.662,0.221,1.152
			c0.066,0.629,0.102,1.417,0.102,2.371c0,1.224-0.052,2.145-0.154,2.774c-0.108,0.629-0.287,1.089-0.543,1.379
			c-0.267,0.309-0.703,0.521-1.312,0.634c-0.609,0.116-1.599,0.174-2.983,0.174c-0.678,0-1.436-0.014-2.261-0.036
			c-0.83-0.025-1.379-0.05-1.638-0.074c-0.452-0.05-0.808-0.127-1.067-0.24c-0.259-0.113-0.494-0.287-0.695-0.524
			c-0.27-0.312-0.452-0.744-0.543-1.307c-0.091-0.562-0.135-1.514-0.135-2.848c0-1.585,0.102-2.705,0.301-3.369
			c0.234-0.786,0.78-1.249,1.638-1.39C196.307,46.937,197.642,46.868,199.525,46.86z"/>
	</g>
	<polygon fill="#C3C33B" points="206.798,46.942 208.805,46.942 216.737,55.635 217.018,55.635 217.018,46.942 218.22,46.942 
		218.22,56.851 216.18,56.851 208.267,48.186 208.003,48.186 208.003,56.851 206.798,56.851 	"/>
	<polygon fill="none" stroke="#C3C33B" stroke-width="0.25" stroke-miterlimit="10" points="206.798,46.942 208.805,46.942 
		216.737,55.635 217.018,55.635 217.018,46.942 218.22,46.942 218.22,56.851 216.18,56.851 208.267,48.186 208.003,48.186 
		208.003,56.851 206.798,56.851 	"/>
	<g>
		<defs>
			<rect id="SVGID_11_" x="29.024" y="6.036" width="241.415" height="85.367"/>
		</defs>
		<clipPath id="SVGID_12_">
			<use xlink:href="#SVGID_11_"  overflow="visible"/>
		</clipPath>
		<path clip-path="url(#SVGID_12_)" fill="#C3C33B" d="M224,53.71h1.172c0,0.113,0.003,0.187,0.008,0.221
			c0.008,0.56,0.044,0.932,0.11,1.122c0.061,0.187,0.201,0.334,0.416,0.436c0.339,0.16,1.436,0.24,3.292,0.24
			c1.348,0,2.313-0.072,2.9-0.218c0.576-0.141,0.866-0.631,0.866-1.475c0-0.427-0.047-0.747-0.138-0.962
			c-0.091-0.218-0.251-0.369-0.477-0.458c-0.223-0.088-0.54-0.135-0.946-0.152c-0.408-0.017-1.726-0.022-3.956-0.022
			c-0.75,0-1.348-0.077-1.8-0.229c-0.452-0.154-0.797-0.397-1.037-0.733c-0.289-0.394-0.433-0.998-0.433-1.809
			c0-0.899,0.229-1.549,0.684-1.952c0.218-0.199,0.466-0.347,0.733-0.449c0.27-0.102,0.645-0.185,1.133-0.248
			c0.797-0.108,1.748-0.16,2.845-0.16c1.023,0,1.809,0.055,2.366,0.171c0.557,0.113,0.987,0.309,1.296,0.584
			c0.256,0.229,0.433,0.494,0.527,0.802c0.094,0.303,0.146,0.772,0.16,1.406h-1.208v-0.152c0-0.482-0.047-0.808-0.146-0.973
			c-0.143-0.259-0.447-0.441-0.926-0.549c-0.474-0.113-1.183-0.171-2.123-0.171c-1.166,0-2.043,0.052-2.633,0.149
			c-0.582,0.096-0.979,0.256-1.188,0.48c-0.193,0.212-0.292,0.568-0.292,1.061c0,0.444,0.05,0.761,0.146,0.951
			c0.099,0.19,0.289,0.331,0.571,0.43c0.414,0.143,1.202,0.221,2.368,0.229c0.4,0.006,1.384,0.011,2.953,0.017
			c0.645,0.006,1.144,0.074,1.489,0.204c0.347,0.132,0.631,0.356,0.852,0.675c0.273,0.405,0.408,0.987,0.408,1.745
			c0,0.72-0.11,1.293-0.336,1.707c-0.27,0.482-0.769,0.811-1.497,0.973c-0.731,0.163-2.043,0.248-3.937,0.248
			c-1.001,0-1.74-0.033-2.211-0.096c-0.48-0.066-0.855-0.185-1.13-0.361c-0.336-0.207-0.568-0.471-0.695-0.794
			c-0.13-0.323-0.19-0.805-0.19-1.445C223.995,54.126,223.998,53.977,224,53.71"/>
		<path clip-path="url(#SVGID_12_)" fill="none" stroke="#C3C33B" stroke-width="0.25" stroke-miterlimit="10" d="M224,53.71h1.172
			c0,0.113,0.003,0.187,0.008,0.221c0.008,0.56,0.044,0.932,0.11,1.122c0.061,0.187,0.201,0.334,0.416,0.436
			c0.339,0.16,1.436,0.24,3.292,0.24c1.348,0,2.313-0.072,2.9-0.218c0.576-0.141,0.866-0.631,0.866-1.475
			c0-0.427-0.047-0.747-0.138-0.962c-0.091-0.218-0.251-0.369-0.477-0.458c-0.223-0.088-0.54-0.135-0.946-0.152
			c-0.408-0.017-1.726-0.022-3.956-0.022c-0.75,0-1.348-0.077-1.8-0.229c-0.452-0.154-0.797-0.397-1.037-0.733
			c-0.289-0.394-0.433-0.998-0.433-1.809c0-0.899,0.229-1.549,0.684-1.952c0.218-0.199,0.466-0.347,0.733-0.449
			c0.27-0.102,0.645-0.185,1.133-0.248c0.797-0.108,1.748-0.16,2.845-0.16c1.023,0,1.809,0.055,2.366,0.171
			c0.557,0.113,0.987,0.309,1.296,0.584c0.256,0.229,0.433,0.494,0.527,0.802c0.094,0.303,0.146,0.772,0.16,1.406h-1.208v-0.152
			c0-0.482-0.047-0.808-0.146-0.973c-0.143-0.259-0.447-0.441-0.926-0.549c-0.474-0.113-1.183-0.171-2.123-0.171
			c-1.166,0-2.043,0.052-2.633,0.149c-0.582,0.096-0.979,0.256-1.188,0.48c-0.193,0.212-0.292,0.568-0.292,1.061
			c0,0.444,0.05,0.761,0.146,0.951c0.099,0.19,0.289,0.331,0.571,0.43c0.414,0.143,1.202,0.221,2.368,0.229
			c0.4,0.006,1.384,0.011,2.953,0.017c0.645,0.006,1.144,0.074,1.489,0.204c0.347,0.132,0.631,0.356,0.852,0.675
			c0.273,0.405,0.408,0.987,0.408,1.745c0,0.72-0.11,1.293-0.336,1.707c-0.27,0.482-0.769,0.811-1.497,0.973
			c-0.731,0.163-2.043,0.248-3.937,0.248c-1.001,0-1.74-0.033-2.211-0.096c-0.48-0.066-0.855-0.185-1.13-0.361
			c-0.336-0.207-0.568-0.471-0.695-0.794c-0.13-0.323-0.19-0.805-0.19-1.445C223.995,54.126,223.998,53.977,224,53.71z"/>
	</g>
	<rect x="236.017" y="55.291" fill="#C3C33B" width="1.354" height="1.558"/>
	
		<rect x="236.017" y="55.291" fill="none" stroke="#C3C33B" stroke-width="0.25" stroke-miterlimit="10" width="1.354" height="1.561"/>
	<path fill="#C3C33B" d="M248.005,53.592l-2.798-5.487h-0.482l-2.84,5.487H248.005z M249.648,56.851l-1.07-2.095h-7.273
		l-1.075,2.095h-1.359l5.101-9.909h1.919l5.087,9.909H249.648z"/>
	<path fill="none" stroke="#C3C33B" stroke-width="0.25" stroke-miterlimit="10" d="M248.005,53.592l-2.798-5.487h-0.482
		l-2.84,5.487H248.005z M249.648,56.851l-1.07-2.095h-7.273l-1.075,2.095h-1.359l5.101-9.909h1.919l5.087,9.909H249.648z"/>
	<rect x="252.548" y="55.291" fill="#C3C33B" width="1.354" height="1.558"/>
	
		<rect x="252.548" y="55.291" fill="none" stroke="#C3C33B" stroke-width="0.25" stroke-miterlimit="10" width="1.354" height="1.561"/>
	<g>
		<defs>
			<rect id="SVGID_13_" x="29.024" y="6.036" width="241.415" height="85.367"/>
		</defs>
		<clipPath id="SVGID_14_">
			<use xlink:href="#SVGID_13_"  overflow="visible"/>
		</clipPath>
		<path clip-path="url(#SVGID_14_)" fill="#C3C33B" d="M266.013,46.896v1.122h-4.866c-1.439,0-2.308,0.011-2.603,0.036
			c-0.375,0.033-0.648,0.127-0.819,0.278s-0.284,0.408-0.334,0.761c-0.083,0.582-0.124,1.428-0.124,2.525
			c0,1.511,0.05,2.545,0.16,3.115c0.061,0.336,0.185,0.573,0.367,0.711c0.179,0.138,0.477,0.221,0.891,0.24
			c0.369,0.019,1.191,0.033,2.462,0.044h4.866v1.122h-4.866c-1.323-0.011-2.236-0.03-2.741-0.063
			c-0.86-0.074-1.458-0.342-1.798-0.808c-0.207-0.289-0.331-0.64-0.386-1.05c-0.052-0.411-0.102-1.425-0.146-3.047
			c0.025-1.417,0.044-2.269,0.063-2.548c0.017-0.281,0.066-0.587,0.146-0.921c0.141-0.557,0.513-0.962,1.108-1.221
			c0.287-0.127,0.634-0.201,1.039-0.232c0.403-0.033,1.304-0.055,2.713-0.066H266.013z"/>
		<path clip-path="url(#SVGID_14_)" fill="none" stroke="#C3C33B" stroke-width="0.25" stroke-miterlimit="10" d="M266.013,46.896
			v1.122h-4.866c-1.439,0-2.308,0.011-2.603,0.036c-0.375,0.033-0.648,0.127-0.819,0.278s-0.284,0.408-0.334,0.761
			c-0.083,0.582-0.124,1.428-0.124,2.525c0,1.511,0.05,2.545,0.16,3.115c0.061,0.336,0.185,0.573,0.367,0.711
			c0.179,0.138,0.477,0.221,0.891,0.24c0.369,0.019,1.191,0.033,2.462,0.044h4.866v1.122h-4.866
			c-1.323-0.011-2.236-0.03-2.741-0.063c-0.86-0.074-1.458-0.342-1.798-0.808c-0.207-0.289-0.331-0.64-0.386-1.05
			c-0.052-0.411-0.102-1.425-0.146-3.047c0.025-1.417,0.044-2.269,0.063-2.548c0.017-0.281,0.066-0.587,0.146-0.921
			c0.141-0.557,0.513-0.962,1.108-1.221c0.287-0.127,0.634-0.201,1.039-0.232c0.403-0.033,1.304-0.055,2.713-0.066H266.013z"/>
	</g>
	<rect x="268.737" y="55.291" fill="#C3C33B" width="1.354" height="1.558"/>
	
		<rect x="268.737" y="55.291" fill="none" stroke="#C3C33B" stroke-width="0.25" stroke-miterlimit="10" width="1.354" height="1.561"/>
</g>
</svg>
