<?xml version="1.0" encoding="utf-8"?>
<!-- Generator: Adobe Illustrator 17.0.0, SVG Export Plug-In . SVG Version: 6.00 Build 0)  -->
<!DOCTYPE svg PUBLIC "-//W3C//DTD SVG 1.1//EN" "http://www.w3.org/Graphics/SVG/1.1/DTD/svg11.dtd">
<svg version="1.1" id="Capa_1" xmlns="http://www.w3.org/2000/svg" xmlns:xlink="http://www.w3.org/1999/xlink" x="0px" y="0px"
	 width="670px" height="65px" viewBox="0 0 670 65" enable-background="new 0 0 670 65" xml:space="preserve">
<path opacity="0.6" fill="#FFFFFF" stroke="#FFFFFF" stroke-width="3" stroke-miterlimit="10" enable-background="new    " d="
	M659.318,44.163c0,6.627-6.946,12-15.514,12H25.832c-8.568,0-15.514-5.373-15.514-12V22.937c0-6.627,6.946-12,15.514-12h617.972
	c8.568,0,15.514,5.373,15.514,12L659.318,44.163L659.318,44.163z"/>
<path fill="none" stroke="#FFFFFF" stroke-miterlimit="10" d="M659.318,44.163c0,6.627-6.946,12-15.514,12H25.832
	c-8.568,0-15.514-5.373-15.514-12V22.937c0-6.627,6.946-12,15.514-12h617.972c8.568,0,15.514,5.373,15.514,12L659.318,44.163
	L659.318,44.163z"/>
</svg>
